<svg width="16" height="16" viewBox="0 0 16 16" fill="none" xmlns="http://www.w3.org/2000/svg">
<path d="M9.58734 6.01822C9.98452 5.87949 10.4119 5.804 10.8572 5.804C11.2936 5.804 11.7129 5.87653 12.1034 6.01007M4.74415 7.73932C4.56504 7.70457 4.37993 7.68636 4.19052 7.68636C2.61256 7.68636 1.33337 8.95049 1.33337 10.5099C1.33337 12.0693 2.61256 13.3334 4.19052 13.3334H10.8572C12.9611 13.3334 14.6667 11.6479 14.6667 9.56871C14.6667 7.92083 13.5954 6.52024 12.1034 6.01007M4.74415 7.73932C4.59142 7.33195 4.50798 6.89133 4.50798 6.43145C4.50798 4.35226 6.21356 2.66675 8.3175 2.66675C10.2773 2.66675 11.8915 4.12922 12.1034 6.01007M4.74415 7.73932C5.12043 7.81234 5.47023 7.95835 5.77782 8.16182" stroke="#A2BCDE" stroke-width="1.4" stroke-linecap="round"/>
</svg>
