<svg width="18" height="18" viewBox="0 0 18 18" fill="none" xmlns="http://www.w3.org/2000/svg">
<path d="M2.25 7.5C2.25 4.67157 2.25 3.25736 3.12868 2.37868C4.00736 1.5 5.42157 1.5 8.25 1.5H9.75C12.5784 1.5 13.9926 1.5 14.8713 2.37868C15.75 3.25736 15.75 4.67157 15.75 7.5V10.5C15.75 13.3284 15.75 14.7426 14.8713 15.6213C13.9926 16.5 12.5784 16.5 9.75 16.5H8.25C5.42157 16.5 4.00736 16.5 3.12868 15.6213C2.25 14.7426 2.25 13.3284 2.25 10.5V7.5Z" stroke="#A2BCDE" stroke-width="1.5"/>
<path d="M6 8.25C5.58579 8.25 5.25 8.58579 5.25 9C5.25 9.41421 5.58579 9.75 6 9.75V8.25ZM12 9.75C12.4142 9.75 12.75 9.41421 12.75 9C12.75 8.58579 12.4142 8.25 12 8.25V9.75ZM6 9.75H12V8.25H6V9.75Z" fill="#A2BCDE"/>
<path d="M6 5.25C5.58579 5.25 5.25 5.58579 5.25 6C5.25 6.41421 5.58579 6.75 6 6.75V5.25ZM12 6.75C12.4142 6.75 12.75 6.41421 12.75 6C12.75 5.58579 12.4142 5.25 12 5.25V6.75ZM6 6.75H12V5.25H6V6.75Z" fill="#A2BCDE"/>
<path d="M6 11.25C5.58579 11.25 5.25 11.5858 5.25 12C5.25 12.4142 5.58579 12.75 6 12.75V11.25ZM9.75 12.75C10.1642 12.75 10.5 12.4142 10.5 12C10.5 11.5858 10.1642 11.25 9.75 11.25V12.75ZM6 12.75H9.75V11.25H6V12.75Z" fill="#A2BCDE"/>
</svg>
