<svg width="14" height="14" viewBox="0 0 14 14" fill="none" xmlns="http://www.w3.org/2000/svg">
<path d="M1.91044 8.92239C1.41464 8.27828 1.16675 7.95622 1.16675 6.99992C1.16675 6.04362 1.41464 5.72156 1.91044 5.07745C2.90039 3.79133 4.56065 2.33325 7.00008 2.33325C9.43951 2.33325 11.0998 3.79133 12.0897 5.07744C12.5855 5.72156 12.8334 6.04362 12.8334 6.99992C12.8334 7.95622 12.5855 8.27828 12.0897 8.92239C11.0998 10.2085 9.43951 11.6666 7.00008 11.6666C4.56065 11.6666 2.90039 10.2085 1.91044 8.92239Z" stroke="#52618F" stroke-width="1.2"/>
<path d="M8.75 7C8.75 7.9665 7.9665 8.75 7 8.75C6.0335 8.75 5.25 7.9665 5.25 7C5.25 6.0335 6.0335 5.25 7 5.25C7.9665 5.25 8.75 6.0335 8.75 7Z" stroke="#52618F" stroke-width="1.2"/>
</svg>
