<svg width="14" height="18" viewBox="0 0 14 18" fill="none" xmlns="http://www.w3.org/2000/svg">
<path d="M2.25214 7.43577L4.54875 4.32849C6.03327 2.31996 6.77553 1.31569 7.46805 1.52791C8.16057 1.74013 8.16057 2.97187 8.16057 5.43534V5.66761C8.16057 6.55614 8.16057 7.0004 8.44448 7.27906L8.4595 7.2935C8.74953 7.56627 9.21191 7.56627 10.1367 7.56627C11.8008 7.56627 12.6329 7.56627 12.9141 8.07098C12.9188 8.07934 12.9233 8.08776 12.9277 8.09625C13.1932 8.60877 12.7114 9.2606 11.7478 10.5643L9.45123 13.6715C7.96668 15.68 7.2244 16.6843 6.53188 16.4721C5.83936 16.2599 5.83938 15.0281 5.83941 12.5646L5.83942 12.3324C5.83943 11.4439 5.83944 10.9996 5.55553 10.721L5.54051 10.7065C5.25048 10.4338 4.78809 10.4338 3.86331 10.4338C2.19916 10.4338 1.36709 10.4338 1.08587 9.92905C1.08122 9.92069 1.07669 9.91227 1.07229 9.90378C0.806831 9.39126 1.2886 8.73943 2.25214 7.43577Z" stroke="#A2BCDE" stroke-width="1.5"/>
</svg>
