<svg width="18" height="18" viewBox="0 0 18 18" fill="none" xmlns="http://www.w3.org/2000/svg">
<g clip-path="url(#clip0_97_10229)">
<path d="M1.5 9C1.5 5.46447 1.5 3.6967 2.59835 2.59835C3.6967 1.5 5.46447 1.5 9 1.5C12.5355 1.5 14.3033 1.5 15.4017 2.59835C16.5 3.6967 16.5 5.46447 16.5 9C16.5 12.5355 16.5 14.3033 15.4017 15.4017C14.3033 16.5 12.5355 16.5 9 16.5C5.46447 16.5 3.6967 16.5 2.59835 15.4017C1.5 14.3033 1.5 12.5355 1.5 9Z" stroke="#A2BCDE" stroke-width="1.5"/>
<circle cx="12" cy="6" r="1.5" stroke="#A2BCDE" stroke-width="1.5"/>
<path d="M1.00612 8.81067C0.694395 9.08343 0.662805 9.55725 0.935565 9.86898C1.20833 10.1807 1.68215 10.2123 1.99388 9.93954L1.00612 8.81067ZM2.81369 8.22563L3.30757 8.79007V8.79007L2.81369 8.22563ZM5.16936 8.30407L5.69969 7.77374L5.16936 8.30407ZM8.38666 11.5214L8.91699 10.991V10.991L8.38666 11.5214ZM10.3098 11.6879L9.87856 11.0743V11.0743L10.3098 11.6879ZM10.5335 11.5308L10.1022 10.9172L10.5335 11.5308ZM13.3324 11.6992L12.8306 12.2567V12.2567L13.3324 11.6992ZM1.99388 9.93954L3.30757 8.79007L2.31981 7.6612L1.00612 8.81067L1.99388 9.93954ZM4.63903 8.8344L7.85633 12.0517L8.91699 10.991L5.69969 7.77374L4.63903 8.8344ZM10.741 12.3016L10.9647 12.1444L10.1022 10.9172L9.87856 11.0743L10.741 12.3016ZM12.8306 12.2567L15.2483 14.4326L16.2517 13.3176L13.8341 11.1417L12.8306 12.2567ZM10.9647 12.1444C11.5368 11.7423 12.3109 11.7889 12.8306 12.2567L13.8341 11.1417C12.7945 10.2062 11.2464 10.113 10.1022 10.9172L10.9647 12.1444ZM7.85633 12.0517C8.62946 12.8248 9.84649 12.9302 10.741 12.3016L9.87856 11.0743C9.58037 11.2839 9.1747 11.2487 8.91699 10.991L7.85633 12.0517ZM3.30757 8.79007C3.69387 8.45206 4.27608 8.47145 4.63903 8.8344L5.69969 7.77374C4.77834 6.85239 3.30042 6.80318 2.31981 7.6612L3.30757 8.79007Z" fill="#A2BCDE"/>
</g>
<defs>
<clipPath id="clip0_97_10229">
<rect width="18" height="18" fill="white"/>
</clipPath>
</defs>
</svg>
