<svg width="122" height="16" viewBox="0 0 122 16" fill="none" xmlns="http://www.w3.org/2000/svg">
<path fill-rule="evenodd" clip-rule="evenodd" d="M122 14.6774H109.924V12.0387L117.277 4.23051H110.193V1.32251H121.785V3.96126L114.433 11.7694H122V14.6774ZM104.962 12.5234H104.586C104.049 13.7619 102.815 14.8928 100.373 14.8928C97.4216 14.8928 95.194 12.7658 95.194 9.29243V1.32251H98.5752V8.96925C98.5752 10.8271 99.6483 11.931 101.58 11.931C103.754 11.931 104.908 10.5848 104.908 8.21536V1.32251H108.29V14.6774H104.962V12.5234ZM92.0552 15.0544C90.6062 15.0544 89.5057 14.0043 89.5057 12.4965C89.5057 10.9886 90.6062 9.93862 92.0552 9.93862C93.5034 9.93862 94.6039 10.9886 94.6039 12.4965C94.6039 14.0043 93.5043 15.0544 92.0552 15.0544ZM82.3718 6.4114L82.8283 6.46525C87.0947 6.97683 88.6782 8.08075 88.6782 10.5309C88.6782 13.1426 86.2357 15.0544 82.6941 15.0544C79.0177 15.0544 77.1422 13.1696 75.9081 11.2848L78.4274 9.58855C79.2593 11.3387 81.0572 12.2541 82.7744 12.2541C84.1426 12.2541 85.4041 11.6618 85.4041 10.6117C85.4041 9.61552 84.0356 9.42705 82.5867 9.26546L82.1306 9.21159C78.4007 8.78079 76.7099 7.56917 76.7099 5.09205C76.7099 2.61494 78.9642 0.945557 82.05 0.945557C84.7875 0.945557 86.7196 2.15718 88.5172 4.04196L86.0747 5.98059C85.0556 4.76895 83.7136 3.69195 81.9426 3.69195C80.6814 3.69195 79.9837 4.23044 79.9837 5.0382C79.9837 6.00749 80.9765 6.24983 82.3718 6.4114ZM68.5196 14.6774L66.4266 4.23051H66.1047L64.0117 14.6774H59.1815L56.5518 1.32251H59.9327L61.5161 11.7694H61.838L63.9311 1.32251H68.6003L70.6933 11.7694H71.0155L72.5985 1.32251H75.9799L73.3501 14.6774H68.5196ZM49.7346 12.1465C51.6127 12.1465 52.6055 11.0964 53.0619 10.154L55.8259 11.7695C54.9134 13.1696 53.3571 15.0544 49.7881 15.0544C45.8166 15.0544 42.9452 12.0388 42.9452 7.89227C42.9452 3.85348 45.7091 0.945557 49.6271 0.945557C53.4913 0.945557 56.0943 3.665 56.0943 7.67688V8.99623H46.4068C46.5409 10.7733 47.8025 12.1465 49.7346 12.1465ZM52.6594 6.62671C52.4178 4.93041 51.3443 3.85341 49.6004 3.85341C47.6951 3.85341 46.7023 4.98427 46.4339 6.62671H52.6594ZM38.3024 7.03057C38.3024 5.17275 37.2289 4.06879 35.2968 4.06879C33.1232 4.06879 31.9695 5.41508 31.9695 7.78448V14.6774H28.5885V1.32251H31.9159V3.47653H32.2913C32.828 2.23798 34.0625 1.10709 36.5045 1.10709C39.4561 1.10709 41.6837 3.23419 41.6837 6.70755V14.6774H38.3024V7.03057Z" fill="white"/>
<path fill-rule="evenodd" clip-rule="evenodd" d="M26.9696 14.6774H14.8941V12.0387L22.2467 4.23051H15.1624V1.32251H26.7548V3.96127L19.4022 11.7694H26.9696V14.6774ZM9.76755 12.5234H9.39184C8.85504 13.7619 7.62076 14.8928 5.17903 14.8928C2.22726 14.8928 0 12.7658 0 9.29243V1.32251H3.38111V8.96925C3.38111 10.8271 4.45449 11.931 6.38655 11.931C8.56017 11.931 9.71402 10.5848 9.71402 8.21536V1.32251H13.0952V14.6774H9.76755V12.5234Z" fill="#A2BCDE"/>
</svg>
