<svg width="14" height="14" viewBox="0 0 14 14" fill="none" xmlns="http://www.w3.org/2000/svg">
<g clip-path="url(#clip0_97_10247)">
<path d="M7.63396 12.4762L8.15029 12.7819V12.7819L7.63396 12.4762ZM7.95019 11.942L7.43385 11.6364L7.95019 11.942ZM6.04995 11.942L5.53362 12.2476V12.2476L6.04995 11.942ZM6.36618 12.4762L6.88251 12.1706L6.88251 12.1706L6.36618 12.4762ZM1.38877 9.28291L1.94309 9.0533H1.94309L1.38877 9.28291ZM4.544 11.0784L4.53366 11.6783L4.544 11.0784ZM2.96725 10.8614L2.73764 11.4157L2.73765 11.4157L2.96725 10.8614ZM12.6114 9.28291L13.1657 9.51252H13.1657L12.6114 9.28291ZM9.45614 11.0784L9.4458 10.4785L9.45614 11.0784ZM11.0329 10.8614L11.2625 11.4157L11.2625 11.4157L11.0329 10.8614ZM11.4407 1.59655L11.1272 2.10813L11.4407 1.59655ZM12.4036 2.55946L12.9152 2.24596L12.9152 2.24596L12.4036 2.55946ZM2.55946 1.59655L2.24596 1.08496V1.08496L2.55946 1.59655ZM1.59655 2.55946L1.08496 2.24596H1.08496L1.59655 2.55946ZM5.48504 11.2058L5.7867 10.6872L5.7867 10.6872L5.48504 11.2058ZM8.15029 12.7819L8.46652 12.2476L7.43385 11.6364L7.11763 12.1706L8.15029 12.7819ZM5.53362 12.2476L5.84984 12.7819L6.88251 12.1706L6.56628 11.6364L5.53362 12.2476ZM7.11763 12.1706C7.095 12.2089 7.05552 12.2334 7.00007 12.2334C6.94462 12.2334 6.90514 12.2089 6.88251 12.1706L5.84984 12.7819C6.36402 13.6505 7.63612 13.6505 8.15029 12.7819L7.11763 12.1706ZM6.12508 1.76675H7.87508V0.566748H6.12508V1.76675ZM12.2334 6.12508V6.70841H13.4334V6.12508H12.2334ZM1.76675 6.70841V6.12508H0.566748V6.70841H1.76675ZM0.566748 6.70841C0.566748 7.3797 0.566423 7.91322 0.595892 8.34513C0.625729 8.78243 0.688099 9.15922 0.834438 9.51252L1.94309 9.0533C1.86741 8.87059 1.81878 8.63964 1.79311 8.26344C1.76707 7.88185 1.76675 7.39612 1.76675 6.70841H0.566748ZM4.55434 10.4785C3.82198 10.4659 3.46631 10.4187 3.19686 10.3071L2.73765 11.4157C3.23856 11.6232 3.80143 11.6657 4.53366 11.6783L4.55434 10.4785ZM0.834438 9.51252C1.19136 10.3742 1.87596 11.0588 2.73764 11.4157L3.19687 10.3071C2.62922 10.0719 2.17822 9.62095 1.94309 9.0533L0.834438 9.51252ZM12.2334 6.70841C12.2334 7.39612 12.2331 7.88185 12.2071 8.26344C12.1814 8.63964 12.1327 8.87059 12.0571 9.0533L13.1657 9.51252C13.3121 9.15922 13.3744 8.78243 13.4043 8.34513C13.4337 7.91322 13.4334 7.3797 13.4334 6.70841H12.2334ZM9.46647 11.6783C10.1987 11.6657 10.7616 11.6232 11.2625 11.4157L10.8033 10.3071C10.5339 10.4187 10.1782 10.4659 9.4458 10.4785L9.46647 11.6783ZM12.0571 9.0533C11.8219 9.62095 11.3709 10.0719 10.8033 10.3071L11.2625 11.4157C12.1242 11.0588 12.8088 10.3742 13.1657 9.51252L12.0571 9.0533ZM7.87508 1.76675C8.84145 1.76675 9.52409 1.76738 10.0541 1.81778C10.5753 1.86733 10.8866 1.96071 11.1272 2.10813L11.7542 1.08496C11.2934 0.802583 10.7767 0.681068 10.1677 0.623167C9.5677 0.566115 8.81821 0.566748 7.87508 0.566748V1.76675ZM13.4334 6.12508C13.4334 5.18195 13.434 4.43247 13.377 3.83243C13.3191 3.22346 13.1976 2.70676 12.9152 2.24596L11.892 2.87296C12.0394 3.11353 12.1328 3.42489 12.1824 3.94601C12.2328 4.47607 12.2334 5.15871 12.2334 6.12508H13.4334ZM11.1272 2.10813C11.4389 2.29915 11.701 2.56124 11.892 2.87296L12.9152 2.24596C12.6252 1.77277 12.2274 1.37493 11.7542 1.08496L11.1272 2.10813ZM6.12508 0.566748C5.18195 0.566748 4.43247 0.566115 3.83243 0.623167C3.22346 0.681068 2.70676 0.802583 2.24596 1.08496L2.87296 2.10813C3.11353 1.96071 3.42489 1.86733 3.94601 1.81778C4.47607 1.76738 5.15871 1.76675 6.12508 1.76675V0.566748ZM1.76675 6.12508C1.76675 5.15871 1.76738 4.47607 1.81778 3.94601C1.86733 3.42489 1.96071 3.11353 2.10813 2.87296L1.08496 2.24596C0.802583 2.70676 0.681068 3.22346 0.623167 3.83243C0.566115 4.43247 0.566748 5.18195 0.566748 6.12508H1.76675ZM2.24596 1.08496C1.77277 1.37493 1.37493 1.77277 1.08496 2.24596L2.10813 2.87296C2.29915 2.56124 2.56124 2.29915 2.87296 2.10813L2.24596 1.08496ZM6.56628 11.6364C6.44941 11.4389 6.34099 11.2545 6.23427 11.1081C6.12017 10.9515 5.98235 10.801 5.7867 10.6872L5.18338 11.7245C5.18473 11.7253 5.20672 11.7356 5.26451 11.8149C5.32967 11.9043 5.40521 12.0307 5.53362 12.2476L6.56628 11.6364ZM4.53366 11.6783C4.79282 11.6828 4.94622 11.6861 5.06063 11.6987C5.11301 11.7045 5.14342 11.711 5.16097 11.716C5.17644 11.7204 5.18179 11.7235 5.18339 11.7245L5.7867 10.6872C5.58908 10.5722 5.38669 10.5275 5.1927 10.506C5.00984 10.4858 4.79122 10.4826 4.55434 10.4785L4.53366 11.6783ZM8.46652 12.2476C8.59492 12.0307 8.67046 11.9043 8.73563 11.8149C8.79342 11.7356 8.81541 11.7253 8.81675 11.7245L8.21344 10.6872C8.01779 10.801 7.87997 10.9515 7.76587 11.1081C7.65915 11.2545 7.55073 11.4389 7.43385 11.6364L8.46652 12.2476ZM9.4458 10.4785C9.20892 10.4826 8.9903 10.4858 8.80744 10.506C8.61345 10.5275 8.41106 10.5722 8.21344 10.6872L8.81675 11.7245C8.81835 11.7235 8.8237 11.7204 8.83916 11.716C8.85672 11.711 8.88713 11.7045 8.93951 11.6987C9.05391 11.6861 9.20732 11.6828 9.46647 11.6783L9.4458 10.4785Z" fill="#52618F"/>
<path d="M4.66675 4.65C4.33538 4.65 4.06675 4.91863 4.06675 5.25C4.06675 5.58137 4.33538 5.85 4.66675 5.85V4.65ZM9.33341 5.85C9.66479 5.85 9.93341 5.58137 9.93341 5.25C9.93341 4.91863 9.66479 4.65 9.33341 4.65V5.85ZM4.66675 5.85H9.33341V4.65H4.66675V5.85Z" fill="#52618F"/>
<path d="M4.66675 6.69175C4.33538 6.69175 4.06675 6.96038 4.06675 7.29175C4.06675 7.62312 4.33538 7.89175 4.66675 7.89175V6.69175ZM7.87508 7.89175C8.20645 7.89175 8.47508 7.62312 8.47508 7.29175C8.47508 6.96038 8.20645 6.69175 7.87508 6.69175V7.89175ZM4.66675 7.89175H7.87508V6.69175H4.66675V7.89175Z" fill="#52618F"/>
</g>
<defs>
<clipPath id="clip0_97_10247">
<rect width="14" height="14" fill="white"/>
</clipPath>
</defs>
</svg>
